<svg xmlns:xlink="http://www.w3.org/1999/xlink" xmlns="http://www.w3.org/2000/svg" id="logo-hid-box" width="508" style="top: 0px;" height="150" ><defs><symbol id="logo" viewBox="0 0 508 150">
  <path style=" stroke:none;fill-rule:nonzero;fill:white;fill-opacity:1;" d="M 0.289062 73.660156 L 0.289062 147.03125 L 21.144531 147.03125 L 21.523438 137.132812 L 21.902344 127.230469 L 23.324219 129.882812 C 28.066406 138.90625 38.011719 145.925781 49.707031 148.484375 C 60.410156 150.875 71.953125 149.273438 82.25 143.972656 C 97.375 136.257812 107.523438 121.640625 109.792969 104.433594 C 111.800781 89.035156 107.148438 73.222656 97.402344 62.363281 C 92.371094 56.773438 87.542969 53.105469 81 49.933594 C 73.84375 46.46875 68.117188 45.128906 60.320312 45.128906 C 49.007812 45.128906 39.699219 48.710938 32.082031 56.015625 C 28.300781 59.65625 27.28125 60.9375 25.304688 64.691406 L 23.847656 67.402344 L 23.847656 0.292969 L 0.289062 0.292969 Z M 58.605469 66.089844 C 62.648438 66.558594 65.585938 67.402344 69.074219 69.117188 C 74.339844 71.710938 78.324219 75.144531 81.292969 79.628906 C 85.421875 85.890625 86.90625 91.21875 86.585938 98.84375 C 86.207031 107.464844 83.035156 114.421875 76.753906 120.390625 C 63.695312 132.765625 42.695312 131.425781 31.148438 117.480469 C 27.628906 113.199219 25.535156 108.832031 24.429688 103.445312 C 21.171875 87.226562 31.089844 71.359375 47.261719 66.964844 C 50.957031 65.945312 54.765625 65.652344 58.605469 66.089844 Z M 58.605469 66.089844 "></path>
<path style=" stroke:none;fill-rule:nonzero;fill:white;fill-opacity:1;" d="M 222.730469 3.464844 C 220.316406 4.25 218.800781 5.242188 216.738281 7.367188 C 211.296875 13.074219 211.296875 21.28125 216.738281 26.960938 C 222.4375 32.929688 231.628906 32.871094 237.359375 26.902344 C 241.835938 22.214844 242.796875 16.652344 240.121094 11.179688 C 238.257812 7.453125 235.089844 4.660156 231.308594 3.492188 C 228.867188 2.738281 225.054688 2.738281 222.730469 3.464844 Z M 222.730469 3.464844 "></path>
<path style=" stroke:none;fill-rule:nonzero;fill:white;fill-opacity:1;" d="M 306.113281 45.679688 C 297.648438 47.222656 288.925781 51.242188 282.585938 56.511719 C 272.839844 64.605469 266.675781 74.707031 264.085938 86.90625 C 263.273438 90.664062 262.953125 100.066406 263.503906 104.027344 C 265.570312 119.226562 273.625 132.328125 286.046875 140.683594 C 301.140625 150.875 318.621094 152.386719 334.0625 144.847656 C 338.367188 142.75 340.78125 141.089844 343.867188 138.035156 C 347.121094 134.859375 348.695312 132.851562 350.292969 129.792969 L 351.542969 127.347656 L 351.71875 129.5625 C 351.835938 130.753906 352.066406 135.179688 352.242188 139.375 L 352.621094 147.03125 L 373.152344 147.03125 L 373.152344 47.75 L 352.621094 47.75 L 352.242188 55.375 C 352.066406 59.597656 351.835938 64.023438 351.71875 65.246094 L 351.542969 67.429688 L 350.265625 64.898438 C 345.609375 55.785156 335.402344 48.621094 323.273438 46 C 319.113281 45.097656 310.242188 44.925781 306.113281 45.679688 Z M 324.816406 66.671875 C 339.53125 69.730469 350.234375 83.53125 349.507812 98.523438 C 349.160156 105.832031 346.804688 111.976562 342.292969 117.421875 C 334.675781 126.5625 323.214844 130.582031 311.496094 128.222656 C 306.316406 127.175781 300.152344 123.914062 296.371094 120.1875 C 291.542969 115.46875 288.050781 108.917969 287.0625 102.660156 C 286.65625 100.125 286.65625 94.390625 287.0625 91.886719 C 288.082031 85.539062 292.242188 78.058594 297.039062 73.894531 C 305.007812 67.023438 314.546875 64.546875 324.816406 66.671875 Z M 324.816406 66.671875 "></path>
<path style=" stroke:none;fill-rule:nonzero;fill:white;fill-opacity:1;" d="M 455.898438 45.566406 C 450.050781 46.613281 444.121094 49.175781 439.757812 52.464844 C 435.191406 55.902344 430.886719 60.996094 428.53125 65.769531 L 427.597656 67.632812 L 427.453125 66.5 C 427.335938 65.886719 427.046875 61.402344 426.757812 56.542969 L 426.261719 47.75 L 405.4375 47.75 L 405.4375 147.03125 L 428.964844 147.03125 L 429.082031 118.847656 C 429.171875 90.953125 429.171875 90.664062 429.808594 88.421875 C 432.921875 77.300781 440.308594 69.4375 450.082031 66.789062 C 453.078125 65.972656 459.417969 66.0625 462.589844 66.933594 C 474.105469 70.050781 481.8125 79.949219 482.800781 92.816406 C 482.945312 94.683594 483.09375 107.667969 483.09375 121.613281 L 483.09375 147.03125 L 506.359375 147.03125 L 506.359375 117.683594 C 506.359375 85.511719 506.332031 85.160156 504.613281 78.492188 C 502.550781 70.457031 499.03125 63.9375 493.707031 58.316406 C 485.449219 49.554688 474.832031 45.070312 462.472656 45.15625 C 459.96875 45.15625 457.03125 45.359375 455.898438 45.566406 Z M 455.898438 45.566406 "></path>
<path style=" stroke:none;fill-rule:nonzero;fill:white;fill-opacity:1;" d="M 187.160156 46.148438 C 178.433594 47.71875 172.0625 51.007812 166.070312 57.035156 C 162.117188 61.023438 159.238281 65.480469 157.347656 70.546875 C 156.996094 71.476562 156.648438 72.203125 156.589844 72.117188 C 156.503906 72.03125 155.339844 49.816406 155.3125 47.953125 C 155.3125 47.835938 150.597656 47.75 144.839844 47.75 L 134.371094 47.75 L 134.371094 147.03125 L 157.929688 147.03125 L 157.929688 123.359375 C 157.929688 105.074219 158.015625 99.078125 158.335938 96.953125 C 159.441406 89.238281 162.523438 82.191406 167.003906 77.300781 C 170.8125 73.109375 176.746094 69.527344 182.183594 68.128906 C 185.355469 67.3125 189.574219 66.671875 191.667969 66.671875 L 193.410156 66.671875 L 193.410156 45.710938 L 191.316406 45.738281 C 190.152344 45.738281 188.292969 45.941406 187.160156 46.148438 Z M 187.160156 46.148438 "></path>
<path style=" stroke:none;fill-rule:nonzero;fill:white;fill-opacity:1;" d="M 215.226562 97.390625 L 215.226562 147.03125 L 238.785156 147.03125 L 238.785156 47.75 L 215.226562 47.75 Z M 215.226562 97.390625 "></path></symbol></defs>
							<use href="#logo"></use>
						</svg>